<svg width="416" height="48" viewBox="0 0 416 48" fill="none" xmlns="http://www.w3.org/2000/svg">
    <path
        d="M12.9119 47H0.340909L14.5043 4.09091H30.4276L44.5909 47H32.0199L22.6335 15.9077H22.2983L12.9119 47ZM10.5653 30.071H34.1989V38.7869H10.5653V30.071ZM60.8604 47.5866C57.3684 47.5866 54.3793 46.8952 51.893 45.5124C49.4068 44.1156 47.5001 42.1741 46.1732 39.6879C44.8463 37.1876 44.1828 34.2893 44.1828 30.9929C44.1828 27.6965 44.8463 24.8052 46.1732 22.3189C47.5001 19.8187 49.4068 17.8771 51.893 16.4943C54.3793 15.0975 57.3684 14.3991 60.8604 14.3991C64.0171 14.3991 66.7478 14.9718 69.0525 16.1172C71.3711 17.2486 73.166 18.8549 74.4371 20.9361C75.7081 23.0033 76.3506 25.4337 76.3646 28.2273H65.6373C65.4837 26.5372 64.9948 25.2521 64.1707 24.3722C63.3606 23.4782 62.313 23.0312 61.028 23.0312C60.0223 23.0312 59.1423 23.3246 58.3881 23.9112C57.6338 24.4839 57.0471 25.3569 56.6281 26.5302C56.2091 27.6895 55.9996 29.1491 55.9996 30.9091C55.9996 32.669 56.2091 34.1357 56.6281 35.3089C57.0471 36.4683 57.6338 37.3413 58.3881 37.9279C59.1423 38.5006 60.0223 38.7869 61.028 38.7869C61.88 38.7869 62.6343 38.5914 63.2907 38.2003C63.9472 37.7952 64.478 37.2086 64.8831 36.4403C65.3021 35.6581 65.5535 34.7083 65.6373 33.5909H76.3646C76.3227 36.4264 75.6732 38.8987 74.4161 41.0078C73.159 43.103 71.3781 44.7232 69.0734 45.8686C66.7827 47.014 64.045 47.5866 60.8604 47.5866ZM91.7017 28.8977V47H80.1364V4.09091H91.2827V20.9361H91.6179C92.3442 18.8828 93.5524 17.2835 95.2425 16.1381C96.9326 14.9788 98.965 14.3991 101.339 14.3991C103.616 14.3991 105.593 14.916 107.269 15.9496C108.959 16.9832 110.265 18.4079 111.187 20.2237C112.123 22.0395 112.584 24.1207 112.57 26.4673V47H101.004V28.8977C101.018 27.3054 100.62 26.0553 99.81 25.1474C99.0139 24.2395 97.8755 23.7855 96.3949 23.7855C95.459 23.7855 94.6349 23.995 93.9226 24.4141C93.2242 24.8191 92.6795 25.4058 92.2884 26.174C91.9112 26.9283 91.7157 27.8362 91.7017 28.8977ZM117.279 47V14.8182H128.844V47H117.279ZM123.062 11.4659C121.497 11.4659 120.156 10.9491 119.039 9.91548C117.921 8.88187 117.363 7.63873 117.363 6.18608C117.363 4.73343 117.921 3.49029 119.039 2.45667C120.156 1.42306 121.497 0.90625 123.062 0.90625C124.64 0.90625 125.981 1.42306 127.084 2.45667C128.202 3.49029 128.76 4.73343 128.76 6.18608C128.76 7.63873 128.202 8.88187 127.084 9.91548C125.981 10.9491 124.64 11.4659 123.062 11.4659ZM149.157 47.5866C145.721 47.5866 142.76 46.9302 140.274 45.6172C137.802 44.2902 135.895 42.3906 134.554 39.9183C133.227 37.4321 132.564 34.4569 132.564 30.9929C132.564 27.6686 133.234 24.7633 134.575 22.277C135.916 19.7907 137.809 17.8562 140.253 16.4734C142.697 15.0906 145.582 14.3991 148.906 14.3991C151.336 14.3991 153.536 14.7763 155.506 15.5305C157.475 16.2848 159.158 17.3813 160.555 18.82C161.952 20.2447 163.027 21.9767 163.782 24.016C164.536 26.0553 164.913 28.353 164.913 30.9091V33.5909H136.167V27.2216H154.27C154.256 26.2997 154.018 25.4896 153.557 24.7912C153.11 24.0788 152.503 23.5271 151.734 23.136C150.98 22.7309 150.121 22.5284 149.157 22.5284C148.222 22.5284 147.363 22.7309 146.58 23.136C145.798 23.5271 145.17 24.0719 144.695 24.7702C144.234 25.4686 143.989 26.2857 143.961 27.2216V34.0938C143.961 35.1274 144.178 36.0492 144.611 36.8594C145.044 37.6695 145.665 38.305 146.476 38.766C147.286 39.2269 148.263 39.4574 149.409 39.4574C150.205 39.4574 150.931 39.3456 151.588 39.1222C152.258 38.8987 152.831 38.5774 153.306 38.1584C153.781 37.7254 154.13 37.2086 154.353 36.608H164.913C164.55 38.8428 163.691 40.7843 162.336 42.4325C160.981 44.0668 159.186 45.3378 156.951 46.2457C154.731 47.1397 152.133 47.5866 149.157 47.5866ZM200.259 14.8182L189.448 47H176.039L165.228 14.8182H177.38L182.576 36.1051H182.911L188.107 14.8182H200.259ZM216.989 47.5866C213.553 47.5866 210.592 46.9302 208.106 45.6172C205.634 44.2902 203.727 42.3906 202.386 39.9183C201.059 37.4321 200.396 34.4569 200.396 30.9929C200.396 27.6686 201.066 24.7633 202.407 22.277C203.748 19.7907 205.641 17.8562 208.085 16.4734C210.529 15.0906 213.414 14.3991 216.738 14.3991C219.168 14.3991 221.368 14.7763 223.338 15.5305C225.307 16.2848 226.99 17.3813 228.387 18.82C229.784 20.2447 230.859 21.9767 231.614 24.016C232.368 26.0553 232.745 28.353 232.745 30.9091V33.5909H203.999V27.2216H222.102C222.088 26.2997 221.85 25.4896 221.389 24.7912C220.942 24.0788 220.335 23.5271 219.566 23.136C218.812 22.7309 217.953 22.5284 216.989 22.5284C216.054 22.5284 215.195 22.7309 214.412 23.136C213.63 23.5271 213.002 24.0719 212.527 24.7702C212.066 25.4686 211.821 26.2857 211.793 27.2216V34.0938C211.793 35.1274 212.01 36.0492 212.443 36.8594C212.876 37.6695 213.497 38.305 214.308 38.766C215.118 39.2269 216.095 39.4574 217.241 39.4574C218.037 39.4574 218.763 39.3456 219.42 39.1222C220.09 38.8987 220.663 38.5774 221.138 38.1584C221.613 37.7254 221.962 37.2086 222.185 36.608H232.745C232.382 38.8428 231.523 40.7843 230.168 42.4325C228.813 44.0668 227.018 45.3378 224.783 46.2457C222.563 47.1397 219.965 47.5866 216.989 47.5866ZM236.464 47V14.8182H247.443V20.9361H247.778C248.449 18.9247 249.594 17.3324 251.214 16.1591C252.835 14.9858 254.762 14.3991 256.997 14.3991C259.26 14.3991 261.208 14.9998 262.843 16.201C264.477 17.3883 265.462 18.9666 265.797 20.9361H266.132C266.677 18.9666 267.836 17.3883 269.61 16.201C271.384 14.9998 273.465 14.3991 275.854 14.3991C278.941 14.3991 281.441 15.3909 283.354 17.3743C285.282 19.3577 286.246 21.9976 286.246 25.294V47H274.68V28.2273C274.68 26.8165 274.324 25.7131 273.612 24.9169C272.9 24.1068 271.943 23.7017 270.741 23.7017C269.554 23.7017 268.611 24.1068 267.913 24.9169C267.229 25.7131 266.886 26.8165 266.886 28.2273V47H255.824V28.2273C255.824 26.8165 255.468 25.7131 254.755 24.9169C254.043 24.1068 253.086 23.7017 251.885 23.7017C251.089 23.7017 250.404 23.8833 249.832 24.2464C249.259 24.6096 248.812 25.1334 248.491 25.8178C248.183 26.4883 248.03 27.2914 248.03 28.2273V47H236.464ZM306.37 47.5866C302.934 47.5866 299.973 46.9302 297.487 45.6172C295.014 44.2902 293.108 42.3906 291.767 39.9183C290.44 37.4321 289.777 34.4569 289.777 30.9929C289.777 27.6686 290.447 24.7633 291.788 22.277C293.129 19.7907 295.021 17.8562 297.466 16.4734C299.91 15.0906 302.795 14.3991 306.119 14.3991C308.549 14.3991 310.749 14.7763 312.719 15.5305C314.688 16.2848 316.371 17.3813 317.768 18.82C319.165 20.2447 320.24 21.9767 320.995 24.016C321.749 26.0553 322.126 28.353 322.126 30.9091V33.5909H293.38V27.2216H311.483C311.469 26.2997 311.231 25.4896 310.77 24.7912C310.323 24.0788 309.716 23.5271 308.947 23.136C308.193 22.7309 307.334 22.5284 306.37 22.5284C305.434 22.5284 304.575 22.7309 303.793 23.136C303.011 23.5271 302.382 24.0719 301.908 24.7702C301.447 25.4686 301.202 26.2857 301.174 27.2216V34.0938C301.174 35.1274 301.391 36.0492 301.824 36.8594C302.257 37.6695 302.878 38.305 303.688 38.766C304.499 39.2269 305.476 39.4574 306.622 39.4574C307.418 39.4574 308.144 39.3456 308.801 39.1222C309.471 38.8987 310.044 38.5774 310.519 38.1584C310.994 37.7254 311.343 37.2086 311.566 36.608H322.126C321.763 38.8428 320.904 40.7843 319.549 42.4325C318.194 44.0668 316.399 45.3378 314.164 46.2457C311.943 47.1397 309.345 47.5866 306.37 47.5866ZM337.411 28.8977V47H325.845V14.8182H336.824V20.9361H337.159C337.858 18.8968 339.087 17.2975 340.847 16.1381C342.621 14.9788 344.688 14.3991 347.048 14.3991C349.325 14.3991 351.302 14.9229 352.978 15.9705C354.668 17.0041 355.974 18.4289 356.896 20.2447C357.832 22.0605 358.293 24.1347 358.279 26.4673V47H346.713V28.8977C346.727 27.3054 346.322 26.0553 345.498 25.1474C344.688 24.2395 343.557 23.7855 342.104 23.7855C341.154 23.7855 340.323 23.995 339.611 24.4141C338.912 24.8191 338.374 25.4058 337.997 26.174C337.62 26.9283 337.425 27.8362 337.411 28.8977ZM382.18 14.8182V23.1989H360.977V14.8182H382.18ZM365.083 7.10795H376.648V36.6499C376.648 37.0968 376.725 37.474 376.879 37.7812C377.033 38.0746 377.27 38.2981 377.591 38.4517C377.913 38.5914 378.325 38.6612 378.827 38.6612C379.177 38.6612 379.582 38.6193 380.043 38.5355C380.518 38.4517 380.867 38.3819 381.09 38.326L382.766 46.4553C382.25 46.6089 381.509 46.7975 380.545 47.021C379.596 47.2444 378.464 47.3911 377.151 47.4609C374.497 47.6006 372.27 47.3282 370.468 46.6438C368.666 45.9454 367.311 44.849 366.403 43.3544C365.495 41.8598 365.055 39.9882 365.083 37.7393V7.10795ZM414.97 25.294H404.326C404.27 24.6375 404.04 24.0719 403.635 23.5969C403.23 23.122 402.706 22.7589 402.063 22.5075C401.435 22.2421 400.736 22.1094 399.968 22.1094C398.976 22.1094 398.124 22.291 397.412 22.6541C396.7 23.0173 396.35 23.5341 396.364 24.2045C396.35 24.6795 396.553 25.1194 396.972 25.5245C397.405 25.9296 398.236 26.2438 399.465 26.4673L406.002 27.6406C409.299 28.2412 411.75 29.2539 413.356 30.6786C414.977 32.0894 415.794 33.982 415.808 36.3565C415.794 38.6473 415.109 40.6377 413.754 42.3278C412.413 44.0039 410.577 45.3029 408.244 46.2248C405.925 47.1327 403.278 47.5866 400.303 47.5866C395.387 47.5866 391.539 46.581 388.759 44.5696C385.993 42.5582 384.45 39.9044 384.129 36.608H395.61C395.764 37.6276 396.267 38.4168 397.119 38.9755C397.985 39.5202 399.074 39.7926 400.387 39.7926C401.449 39.7926 402.322 39.611 403.006 39.2479C403.705 38.8847 404.061 38.3679 404.075 37.6974C404.061 37.0829 403.753 36.594 403.153 36.2308C402.566 35.8677 401.644 35.5743 400.387 35.3509L394.688 34.3452C391.406 33.7725 388.948 32.683 387.313 31.0767C385.679 29.4704 384.869 27.4032 384.883 24.875C384.869 22.6402 385.456 20.7475 386.643 19.1971C387.844 17.6327 389.555 16.4454 391.776 15.6353C394.011 14.8112 396.658 14.3991 399.717 14.3991C404.368 14.3991 408.035 15.3629 410.716 17.2905C413.412 19.218 414.83 21.8859 414.97 25.294Z"
        fill="#003865" />
</svg>