<svg width="39" height="37" viewBox="0 0 39 37" fill="none" xmlns="http://www.w3.org/2000/svg">
<g clip-path="url(#clip0_245_917)">
<path fill-rule="evenodd" clip-rule="evenodd" d="M2.13572 2.9959C1.29162 2.9959 0.600024 3.68778 0.600024 4.52797V10.6987H36.4V4.52797C36.4 3.68778 35.7084 2.9959 34.8643 2.9959H30.93C30.5986 2.9959 30.33 2.72727 30.33 2.3959C30.33 2.06453 30.5986 1.7959 30.93 1.7959H34.8643C36.3693 1.7959 37.6 3.02312 37.6 4.52797V33.8672C37.6 35.3727 36.3694 36.6 34.8643 36.6H2.13572C0.630653 36.6 -0.599976 35.3727 -0.599976 33.8672V4.52797C-0.599976 3.02312 0.630797 1.7959 2.13572 1.7959H8.01306C8.34443 1.7959 8.61306 2.06453 8.61306 2.3959C8.61306 2.72727 8.34443 2.9959 8.01306 2.9959H2.13572ZM36.4 11.8987H0.600024V33.8672C0.600024 34.7083 1.29176 35.4 2.13572 35.4H34.8643C35.7083 35.4 36.4 34.7083 36.4 33.8672V11.8987ZM12.3837 2.3959C12.3837 2.06453 12.6523 1.7959 12.9837 1.7959H17.4629C17.7942 1.7959 18.0629 2.06453 18.0629 2.3959C18.0629 2.72727 17.7942 2.9959 17.4629 2.9959H12.9837C12.6523 2.9959 12.3837 2.72727 12.3837 2.3959ZM21.6206 2.3959C21.6206 2.06453 21.8893 1.7959 22.2206 1.7959H26.6998C27.0312 1.7959 27.2998 2.06453 27.2998 2.3959C27.2998 2.72727 27.0312 2.9959 26.6998 2.9959H22.2206C21.8893 2.9959 21.6206 2.72727 21.6206 2.3959Z" fill="#088395"/>
<path d="M11.4543 18.5204V16.3402H13.6387V18.5204H11.4543ZM16.9078 18.5204V16.3402H19.0922V18.5204H16.9078ZM22.3621 18.5204V16.3402H24.5465V18.5204H22.3621ZM27.8156 18.5204V16.3402H30V18.5204H27.8156ZM6 23.9583V21.7781H8.18437V23.9583H6ZM11.4543 23.9583V21.7781H13.6387V23.9583H11.4543ZM16.9078 23.9583V21.7781H19.0922V23.9583H16.9078ZM22.3621 23.9583V21.7781H24.5465V23.9583H22.3621ZM27.8156 23.9583V21.7781H30V23.9583H27.8156ZM6 30V27.8198H8.18437V30H6ZM11.4543 30V27.8198H13.6387V30H11.4543ZM16.9078 30V27.8198H19.0922V30H16.9078ZM22.3621 30V27.8198H24.5465V30H22.3621ZM27.8156 30V27.8198H30V30H27.8156ZM11.216 3.66704H10.0415C9.78554 3.66704 9.57795 3.46008 9.57795 3.20487V0.462174C9.57795 0.206967 9.78554 0 10.0415 0H11.216C11.472 0 11.6796 0.206967 11.6796 0.462174V3.20487C11.6796 3.46008 11.472 3.66704 11.216 3.66704ZM20.3528 3.66704H19.1221C18.8809 3.66704 18.6866 3.47253 18.6866 3.23288V0.433385C18.6866 0.193739 18.8809 0 19.1221 0H20.3528C20.5932 0 20.7883 0.193739 20.7883 0.433385V3.23288C20.7883 3.47253 20.5932 3.66704 20.3528 3.66704ZM29.461 3.66704H28.2303C27.99 3.66704 27.7949 3.47253 27.7949 3.23288V0.433385C27.7949 0.193739 27.99 0 28.2303 0H29.461C29.7014 0 29.8965 0.193739 29.8965 0.433385V3.23288C29.8965 3.47253 29.7014 3.66704 29.461 3.66704Z" fill="#088395"/>
</g>
<defs>
<clipPath id="clip0_245_917">
<rect width="39" height="37" fill="white"/>
</clipPath>
</defs>
</svg>
