<svg width="535" height="802" viewBox="0 0 535 802" fill="none" xmlns="http://www.w3.org/2000/svg">
    <path
        d="M174.349 480.894H233.187C251.585 480.894 266.5 468.435 266.5 453.065V423.009C266.5 407.639 281.415 395.179 299.812 395.179H467.707H483.031C510.628 395.179 533 376.49 533 353.435C533 330.38 510.628 311.691 483.031 311.691H414.407H299.812C281.415 311.691 266.5 299.231 266.5 283.861V249.314C266.5 233.944 251.585 221.484 233.187 221.484H141.245H73.2875C36.4915 221.484 6.6625 196.565 6.6625 165.825V0M166.562 480.894H169.535H49.9687C22.3718 480.894 0 499.584 0 522.639C0 545.693 22.3718 564.383 49.9687 564.383H238.888C257.286 564.383 272.201 576.843 272.201 592.212V626.721V800"
        stroke="white" stroke-width="3.3333" stroke-linecap="round" />
</svg>