<svg width="337" height="111" viewBox="0 0 337 111" fill="none" xmlns="http://www.w3.org/2000/svg">
<path d="M25.7631 3.13068H37.2148V30.1534C37.2148 33.3665 36.4459 36.147 34.908 38.495C33.3839 40.8293 31.2555 42.6349 28.5231 43.9119C25.7906 45.1752 22.6187 45.8068 19.0074 45.8068C15.3687 45.8068 12.1831 45.1752 9.45062 43.9119C6.71814 42.6349 4.58982 40.8293 3.06567 38.495C1.55526 36.147 0.800049 33.3665 0.800049 30.1534V3.13068H12.2518V29.1648C12.2518 30.4692 12.5401 31.6364 13.1168 32.6662C13.6935 33.6823 14.4899 34.4787 15.506 35.0554C16.5358 35.6321 17.703 35.9205 19.0074 35.9205C20.3256 35.9205 21.4928 35.6321 22.5089 35.0554C23.525 34.4787 24.3214 33.6823 24.8981 32.6662C25.4748 31.6364 25.7631 30.4692 25.7631 29.1648V3.13068Z" fill="#003865"/>
<path d="M41.8222 57.1761V13.6761H53.1092V19.196H53.3563C53.7683 18.125 54.3724 17.1432 55.1688 16.2507C55.9652 15.3445 56.9539 14.6236 58.1347 14.0881C59.3156 13.5388 60.6887 13.2642 62.2541 13.2642C64.3412 13.2642 66.3253 13.8203 68.2065 14.9325C70.1014 16.0447 71.6392 17.7955 72.8201 20.1847C74.0147 22.5739 74.612 25.6771 74.612 29.4943C74.612 33.1468 74.0422 36.1745 72.9025 38.5774C71.7766 40.9804 70.2661 42.7723 68.3712 43.9531C66.4901 45.134 64.4236 45.7244 62.1717 45.7244C60.6887 45.7244 59.3637 45.4841 58.1965 45.0036C57.0431 44.5092 56.0545 43.8433 55.2306 43.0057C54.4205 42.1544 53.7957 41.1932 53.3563 40.1222H53.1916V57.1761H41.8222ZM52.9444 29.4943C52.9444 31.0322 53.1435 32.3641 53.5417 33.4901C53.9536 34.6023 54.5303 35.4673 55.2718 36.0852C56.027 36.6894 56.9264 36.9915 57.97 36.9915C59.0135 36.9915 59.8992 36.6963 60.6269 36.1058C61.3684 35.5017 61.9314 34.6435 62.3158 33.5312C62.7141 32.4053 62.9132 31.0597 62.9132 29.4943C62.9132 27.929 62.7141 26.5902 62.3158 25.478C61.9314 24.352 61.3684 23.4938 60.6269 22.9034C59.8992 22.2992 59.0135 21.9972 57.97 21.9972C56.9264 21.9972 56.027 22.2992 55.2718 22.9034C54.5303 23.4938 53.9536 24.352 53.5417 25.478C53.1435 26.5902 52.9444 27.929 52.9444 29.4943Z" fill="#003865"/>
<path d="M93.6165 45.8892C90.1837 45.8892 87.2452 45.2095 84.8011 43.8501C82.357 42.477 80.4827 40.5684 79.1782 38.1243C77.8738 35.6664 77.2216 32.8172 77.2216 29.5767C77.2216 26.3362 77.8738 23.4938 79.1782 21.0497C80.4827 18.5919 82.357 16.6832 84.8011 15.3239C87.2452 13.9508 90.1837 13.2642 93.6165 13.2642C96.7197 13.2642 99.4041 13.8272 101.67 14.9531C103.949 16.0653 105.714 17.6444 106.963 19.6903C108.213 21.7225 108.844 24.1117 108.858 26.858H98.3125C98.1614 25.1965 97.6809 23.9332 96.8707 23.0682C96.0743 22.1894 95.0445 21.75 93.7812 21.75C92.7926 21.75 91.9275 22.0384 91.1861 22.6151C90.4446 23.178 89.8679 24.0362 89.4559 25.1896C89.044 26.3293 88.838 27.7642 88.838 29.4943C88.838 31.2244 89.044 32.6662 89.4559 33.8196C89.8679 34.9593 90.4446 35.8175 91.1861 36.3942C91.9275 36.9571 92.7926 37.2386 93.7812 37.2386C94.6188 37.2386 95.3603 37.0464 96.0057 36.6619C96.651 36.2637 97.1728 35.687 97.571 34.9318C97.9829 34.1629 98.2301 33.2292 98.3125 32.1307H108.858C108.817 34.9181 108.178 37.3485 106.942 39.4219C105.707 41.4815 103.956 43.0743 101.69 44.2003C99.4384 45.3262 96.7471 45.8892 93.6165 45.8892Z" fill="#003865"/>
<path d="M127.79 45.8892C124.358 45.8892 121.419 45.2095 118.975 43.8501C116.531 42.477 114.657 40.5684 113.352 38.1243C112.048 35.6664 111.395 32.8172 111.395 29.5767C111.395 26.3362 112.048 23.4938 113.352 21.0497C114.657 18.5919 116.531 16.6832 118.975 15.3239C121.419 13.9508 124.358 13.2642 127.79 13.2642C131.223 13.2642 134.161 13.9508 136.606 15.3239C139.05 16.6832 140.924 18.5919 142.229 21.0497C143.533 23.4938 144.185 26.3362 144.185 29.5767C144.185 32.8172 143.533 35.6664 142.229 38.1243C140.924 40.5684 139.05 42.477 136.606 43.8501C134.161 45.2095 131.223 45.8892 127.79 45.8892ZM127.873 37.4858C128.834 37.4858 129.665 37.1631 130.365 36.5178C131.065 35.8724 131.608 34.9524 131.992 33.7578C132.376 32.5632 132.569 31.142 132.569 29.4943C132.569 27.8329 132.376 26.4117 131.992 25.2308C131.608 24.0362 131.065 23.1162 130.365 22.4709C129.665 21.8255 128.834 21.5028 127.873 21.5028C126.857 21.5028 125.985 21.8255 125.257 22.4709C124.529 23.1162 123.973 24.0362 123.589 25.2308C123.204 26.4117 123.012 27.8329 123.012 29.4943C123.012 31.142 123.204 32.5632 123.589 33.7578C123.973 34.9524 124.529 35.8724 125.257 36.5178C125.985 37.1631 126.857 37.4858 127.873 37.4858Z" fill="#003865"/>
<path d="M147.799 45.3125V13.6761H158.591V19.6903H158.921C159.58 17.7131 160.706 16.1477 162.299 14.9943C163.892 13.8409 165.786 13.2642 167.983 13.2642C170.208 13.2642 172.123 13.8546 173.73 15.0355C175.336 16.2027 176.304 17.7543 176.634 19.6903H176.964C177.499 17.7543 178.639 16.2027 180.383 15.0355C182.126 13.8546 184.172 13.2642 186.52 13.2642C189.555 13.2642 192.013 14.2391 193.894 16.1889C195.789 18.1387 196.736 20.7339 196.736 23.9744V45.3125H185.367V26.858C185.367 25.4711 185.017 24.3864 184.317 23.6037C183.616 22.8073 182.676 22.4091 181.495 22.4091C180.328 22.4091 179.401 22.8073 178.714 23.6037C178.041 24.3864 177.705 25.4711 177.705 26.858V45.3125H166.83V26.858C166.83 25.4711 166.48 24.3864 165.78 23.6037C165.079 22.8073 164.139 22.4091 162.958 22.4091C162.175 22.4091 161.502 22.5876 160.939 22.9446C160.376 23.3016 159.937 23.8165 159.621 24.4893C159.319 25.1484 159.168 25.938 159.168 26.858V45.3125H147.799Z" fill="#003865"/>
<path d="M201.344 45.3125V13.6761H212.713V45.3125H201.344ZM207.028 10.3807C205.491 10.3807 204.172 9.87263 203.074 8.85653C201.975 7.84044 201.426 6.61837 201.426 5.19034C201.426 3.76231 201.975 2.54025 203.074 1.52415C204.172 0.508049 205.491 0 207.028 0C208.58 0 209.898 0.508049 210.983 1.52415C212.081 2.54025 212.631 3.76231 212.631 5.19034C212.631 6.61837 212.081 7.84044 210.983 8.85653C209.898 9.87263 208.58 10.3807 207.028 10.3807Z" fill="#003865"/>
<path d="M228.875 27.517V45.3125H217.506V13.6761H228.298V19.6903H228.628C229.315 17.6856 230.523 16.1134 232.253 14.9737C233.997 13.834 236.029 13.2642 238.35 13.2642C240.588 13.2642 242.531 13.7791 244.178 14.8089C245.84 15.825 247.124 17.2256 248.03 19.0107C248.95 20.7957 249.403 22.8348 249.389 25.1278V45.3125H238.02V27.517C238.034 25.9517 237.636 24.7228 236.825 23.8303C236.029 22.9377 234.917 22.4915 233.489 22.4915C232.555 22.4915 231.738 22.6974 231.038 23.1094C230.351 23.5076 229.823 24.0843 229.452 24.8395C229.081 25.581 228.889 26.4735 228.875 27.517Z" fill="#003865"/>
<path d="M269.243 57.8352C266.072 57.8352 263.353 57.3821 261.087 56.4759C258.835 55.5833 257.085 54.3475 255.835 52.7685C254.599 51.2031 253.906 49.4044 253.755 47.3722H264.712C264.822 48.045 265.097 48.5874 265.536 48.9993C265.975 49.4112 266.538 49.7064 267.225 49.8849C267.925 50.0772 268.708 50.1733 269.573 50.1733C271.042 50.1733 272.257 49.8163 273.219 49.1023C274.193 48.3883 274.681 47.0975 274.681 45.2301V39.875H274.351C273.939 40.946 273.308 41.8591 272.456 42.6143C271.605 43.3558 270.582 43.9257 269.388 44.3239C268.193 44.7083 266.882 44.9006 265.454 44.9006C263.202 44.9006 261.128 44.3788 259.233 43.3352C257.352 42.2917 255.842 40.6371 254.702 38.3714C253.576 36.1058 253.013 33.1468 253.013 29.4943C253.013 25.6771 253.604 22.5739 254.785 20.1847C255.979 17.7955 257.517 16.0447 259.398 14.9325C261.293 13.8203 263.284 13.2642 265.371 13.2642C266.937 13.2642 268.31 13.5388 269.491 14.0881C270.671 14.6236 271.66 15.3445 272.456 16.2507C273.253 17.1432 273.857 18.125 274.269 19.196H274.516V13.6761H285.885V45.2301C285.885 47.9077 285.192 50.1802 283.805 52.0476C282.432 53.9287 280.496 55.3636 277.997 56.3523C275.498 57.3409 272.58 57.8352 269.243 57.8352ZM269.655 36.8267C270.699 36.8267 271.591 36.5384 272.333 35.9616C273.088 35.3712 273.665 34.5336 274.063 33.4489C274.475 32.3504 274.681 31.0322 274.681 29.4943C274.681 27.929 274.475 26.5902 274.063 25.478C273.665 24.352 273.088 23.4938 272.333 22.9034C271.591 22.2992 270.699 21.9972 269.655 21.9972C268.612 21.9972 267.719 22.2992 266.978 22.9034C266.25 23.4938 265.687 24.352 265.289 25.478C264.904 26.5902 264.712 27.929 264.712 29.4943C264.712 31.0597 264.904 32.3916 265.289 33.4901C265.687 34.5748 266.25 35.4055 266.978 35.9822C267.719 36.5452 268.612 36.8267 269.655 36.8267Z" fill="#003865"/>
<path d="M0.800049 110.312V68.1307H31.2006V77.358H12.2518V84.608H29.6353V93.8352H12.2518V101.085H31.1182V110.312H0.800049Z" fill="#003865"/>
<path d="M67.9284 78.6761L57.3006 110.312H44.1188L33.4909 78.6761H45.4369L50.5449 99.6023H50.8744L55.9824 78.6761H67.9284Z" fill="#003865"/>
<path d="M84.3583 110.889C80.9805 110.889 78.0695 110.244 75.6253 108.953C73.1949 107.649 71.3206 105.781 70.0025 103.351C68.698 100.907 68.0458 97.982 68.0458 94.5767C68.0458 91.3087 68.7049 88.4527 70.0231 86.0085C71.3412 83.5644 73.2018 81.6626 75.6047 80.3033C78.0077 78.9439 80.8431 78.2642 84.1111 78.2642C86.5003 78.2642 88.663 78.6349 90.5991 79.3764C92.5351 80.1179 94.1897 81.1958 95.5628 82.6101C96.9359 84.0107 97.9932 85.7133 98.7347 87.718C99.4762 89.7228 99.8469 91.9815 99.8469 94.4943V97.1307H71.5884V90.8693H89.3839C89.3701 89.9631 89.1367 89.1667 88.6836 88.4801C88.2442 87.7798 87.6469 87.2374 86.8917 86.853C86.1502 86.4548 85.3057 86.2557 84.3583 86.2557C83.4383 86.2557 82.5938 86.4548 81.8249 86.853C81.056 87.2374 80.4381 87.773 79.9712 88.4595C79.5181 89.1461 79.2778 89.9493 79.2503 90.8693V97.625C79.2503 98.6411 79.4632 99.5473 79.8888 100.344C80.3145 101.14 80.9255 101.765 81.7219 102.218C82.5183 102.671 83.4795 102.898 84.6054 102.898C85.3881 102.898 86.1021 102.788 86.7475 102.568C87.4066 102.348 87.9696 102.033 88.4364 101.621C88.9033 101.195 89.2465 100.687 89.4662 100.097H99.8469C99.4899 102.294 98.6455 104.202 97.3135 105.822C95.9816 107.429 94.2172 108.679 92.0202 109.571C89.837 110.45 87.283 110.889 84.3583 110.889Z" fill="#003865"/>
<path d="M114.856 92.517V110.312H103.486V78.6761H114.279V84.6903H114.608C115.295 82.6856 116.503 81.1134 118.233 79.9737C119.977 78.834 122.01 78.2642 124.33 78.2642C126.568 78.2642 128.511 78.7791 130.159 79.8089C131.82 80.825 133.104 82.2256 134.01 84.0107C134.93 85.7957 135.384 87.8348 135.37 90.1278V110.312H124.001V92.517C124.014 90.9517 123.616 89.7228 122.806 88.8303C122.01 87.9377 120.897 87.4915 119.469 87.4915C118.536 87.4915 117.719 87.6974 117.018 88.1094C116.332 88.5076 115.803 89.0843 115.432 89.8395C115.062 90.581 114.869 91.4735 114.856 92.517Z" fill="#003865"/>
<path d="M158.849 78.6761V86.9148H138.005V78.6761H158.849ZM142.042 71.0966H153.411V100.138C153.411 100.577 153.487 100.948 153.638 101.25C153.789 101.538 154.022 101.758 154.338 101.909C154.654 102.046 155.059 102.115 155.553 102.115C155.897 102.115 156.295 102.074 156.748 101.991C157.215 101.909 157.558 101.84 157.778 101.786L159.426 109.777C158.918 109.928 158.19 110.113 157.242 110.333C156.309 110.553 155.196 110.697 153.906 110.766C151.297 110.903 149.107 110.635 147.335 109.962C145.564 109.276 144.232 108.198 143.34 106.729C142.447 105.259 142.015 103.42 142.042 101.209V71.0966Z" fill="#003865"/>
<path d="M191.066 88.9744H180.603C180.548 88.3291 180.321 87.773 179.923 87.3061C179.525 86.8392 179.01 86.4822 178.379 86.2351C177.761 85.9742 177.074 85.8438 176.319 85.8438C175.344 85.8438 174.506 86.0222 173.806 86.3793C173.106 86.7363 172.763 87.2443 172.776 87.9034C172.763 88.3703 172.962 88.8028 173.374 89.201C173.799 89.5992 174.616 89.9081 175.825 90.1278L182.251 91.2812C185.491 91.8717 187.901 92.8672 189.48 94.2678C191.073 95.6546 191.876 97.5152 191.89 99.8494C191.876 102.101 191.203 104.058 189.871 105.719C188.553 107.367 186.748 108.644 184.455 109.55C182.175 110.443 179.573 110.889 176.648 110.889C171.815 110.889 168.032 109.901 165.3 107.923C162.581 105.946 161.064 103.337 160.748 100.097H172.035C172.186 101.099 172.68 101.875 173.518 102.424C174.369 102.96 175.44 103.227 176.731 103.227C177.774 103.227 178.633 103.049 179.305 102.692C179.992 102.335 180.342 101.827 180.356 101.168C180.342 100.563 180.04 100.083 179.45 99.7259C178.873 99.3688 177.967 99.0805 176.731 98.8608L171.129 97.8722C167.902 97.3092 165.485 96.2382 163.879 94.6591C162.272 93.08 161.476 91.0478 161.489 88.5625C161.476 86.3655 162.052 84.505 163.219 82.9808C164.4 81.4429 166.082 80.2758 168.266 79.4794C170.463 78.6693 173.065 78.2642 176.072 78.2642C180.644 78.2642 184.249 79.2116 186.885 81.1065C189.535 83.0014 190.929 85.6241 191.066 88.9744Z" fill="#003865"/>
</svg>
