<svg width="714" height="234" viewBox="0 0 714 234" fill="none" xmlns="http://www.w3.org/2000/svg">
    <g filter="url(#filter0_d_219_1073)">
        <path
            d="M71.8292 89L50.3803 16.2727H72.3974L82.3406 61.017H82.9087L94.6985 16.2727H112.028L123.818 61.1591H124.386L134.329 16.2727H156.346L134.897 89H116.005L103.647 48.375H103.079L90.7212 89H71.8292ZM182.811 89.9943C176.987 89.9943 171.968 88.8816 167.754 86.6562C163.564 84.4072 160.332 81.1875 158.06 76.9972C155.811 72.7831 154.686 67.7405 154.686 61.8693C154.686 56.2348 155.822 51.3106 158.095 47.0966C160.368 42.8826 163.576 39.6037 167.719 37.2599C171.862 34.9162 176.75 33.7443 182.385 33.7443C186.504 33.7443 190.233 34.3835 193.571 35.6619C196.909 36.9403 199.762 38.7988 202.129 41.2372C204.497 43.652 206.32 46.5876 207.598 50.044C208.876 53.5005 209.516 57.3949 209.516 61.7273V66.2727H160.794V55.4773H191.476C191.452 53.9148 191.05 52.5417 190.268 51.358C189.511 50.1506 188.481 49.2154 187.179 48.5526C185.901 47.866 184.445 47.5227 182.811 47.5227C181.225 47.5227 179.769 47.866 178.443 48.5526C177.117 49.2154 176.052 50.1387 175.247 51.3224C174.466 52.5062 174.052 53.8911 174.004 55.4773V67.125C174.004 68.8769 174.371 70.4394 175.105 71.8125C175.839 73.1856 176.893 74.2628 178.266 75.044C179.639 75.8253 181.296 76.2159 183.237 76.2159C184.587 76.2159 185.818 76.0265 186.93 75.6477C188.067 75.2689 189.037 74.7244 189.842 74.0142C190.647 73.2803 191.239 72.4044 191.618 71.3864H209.516C208.9 75.1742 207.444 78.465 205.148 81.2585C202.851 84.0284 199.809 86.1828 196.021 87.7216C192.257 89.2367 187.854 89.9943 182.811 89.9943ZM237.117 16.2727V89H217.515V16.2727H237.117ZM273.383 89.9943C267.464 89.9943 262.398 88.8224 258.184 86.4787C253.97 84.1113 250.738 80.8205 248.489 76.6065C246.24 72.3688 245.116 67.4564 245.116 61.8693C245.116 56.2822 246.24 51.3816 248.489 47.1676C250.738 42.9299 253.97 39.6392 258.184 37.2955C262.398 34.928 267.464 33.7443 273.383 33.7443C278.733 33.7443 283.362 34.715 287.268 36.6562C291.198 38.5739 294.24 41.2964 296.394 44.8239C298.549 48.3277 299.638 52.447 299.661 57.1818H281.479C281.219 54.3172 280.39 52.1392 278.994 50.6477C277.621 49.1326 275.845 48.375 273.667 48.375C271.962 48.375 270.471 48.8722 269.192 49.8665C267.914 50.8371 266.92 52.3168 266.21 54.3054C265.499 56.2704 265.144 58.7443 265.144 61.7273C265.144 64.7102 265.499 67.196 266.21 69.1847C266.92 71.1496 267.914 72.6293 269.192 73.6236C270.471 74.5942 271.962 75.0795 273.667 75.0795C275.111 75.0795 276.389 74.7481 277.502 74.0852C278.615 73.3987 279.514 72.4044 280.201 71.1023C280.911 69.7765 281.337 68.1667 281.479 66.2727H299.661C299.59 71.0786 298.489 75.2689 296.359 78.8438C294.228 82.3949 291.21 85.1411 287.303 87.0824C283.421 89.0237 278.781 89.9943 273.383 89.9943ZM334.027 89.9943C328.109 89.9943 323.042 88.8224 318.828 86.4787C314.614 84.1113 311.383 80.8205 309.134 76.6065C306.885 72.3688 305.76 67.4564 305.76 61.8693C305.76 56.2822 306.885 51.3816 309.134 47.1676C311.383 42.9299 314.614 39.6392 318.828 37.2955C323.042 34.928 328.109 33.7443 334.027 33.7443C339.946 33.7443 345.012 34.928 349.226 37.2955C353.44 39.6392 356.672 42.9299 358.921 47.1676C361.17 51.3816 362.294 56.2822 362.294 61.8693C362.294 67.4564 361.17 72.3688 358.921 76.6065C356.672 80.8205 353.44 84.1113 349.226 86.4787C345.012 88.8224 339.946 89.9943 334.027 89.9943ZM334.169 75.5057C335.827 75.5057 337.259 74.9493 338.466 73.8366C339.674 72.724 340.609 71.1378 341.272 69.0781C341.935 67.0185 342.266 64.5682 342.266 61.7273C342.266 58.8627 341.935 56.4124 341.272 54.3764C340.609 52.3168 339.674 50.7306 338.466 49.6179C337.259 48.5052 335.827 47.9489 334.169 47.9489C332.417 47.9489 330.914 48.5052 329.659 49.6179C328.405 50.7306 327.446 52.3168 326.783 54.3764C326.12 56.4124 325.789 58.8627 325.789 61.7273C325.789 64.5682 326.12 67.0185 326.783 69.0781C327.446 71.1378 328.405 72.724 329.659 73.8366C330.914 74.9493 332.417 75.5057 334.169 75.5057ZM370.249 89V34.4545H388.857V44.8239H389.425C390.561 41.4148 392.503 38.7159 395.249 36.7273C397.995 34.7386 401.262 33.7443 405.05 33.7443C408.885 33.7443 412.188 34.7623 414.958 36.7983C417.728 38.8106 419.397 41.4858 419.965 44.8239H420.533C421.456 41.4858 423.421 38.8106 426.428 36.7983C429.435 34.7623 432.962 33.7443 437.01 33.7443C442.242 33.7443 446.48 35.4252 449.723 38.7869C452.99 42.1487 454.624 46.6231 454.624 52.2102V89H435.022V57.1818C435.022 54.7907 434.418 52.9205 433.211 51.571C432.003 50.1979 430.382 49.5114 428.346 49.5114C426.333 49.5114 424.735 50.1979 423.551 51.571C422.391 52.9205 421.811 54.7907 421.811 57.1818V89H403.061V57.1818C403.061 54.7907 402.458 52.9205 401.25 51.571C400.043 50.1979 398.421 49.5114 396.385 49.5114C395.036 49.5114 393.876 49.8191 392.905 50.4347C391.935 51.0502 391.177 51.938 390.632 53.098C390.112 54.2344 389.851 55.5956 389.851 57.1818V89H370.249ZM490.428 89.9943C484.604 89.9943 479.585 88.8816 475.371 86.6562C471.181 84.4072 467.95 81.1875 465.677 76.9972C463.428 72.7831 462.303 67.7405 462.303 61.8693C462.303 56.2348 463.44 51.3106 465.712 47.0966C467.985 42.8826 471.193 39.6037 475.336 37.2599C479.479 34.9162 484.368 33.7443 490.002 33.7443C494.121 33.7443 497.85 34.3835 501.188 35.6619C504.526 36.9403 507.379 38.7988 509.746 41.2372C512.114 43.652 513.937 46.5876 515.215 50.044C516.494 53.5005 517.133 57.3949 517.133 61.7273V66.2727H468.411V55.4773H499.093C499.069 53.9148 498.667 52.5417 497.886 51.358C497.128 50.1506 496.098 49.2154 494.796 48.5526C493.518 47.866 492.062 47.5227 490.428 47.5227C488.842 47.5227 487.386 47.866 486.06 48.5526C484.735 49.2154 483.669 50.1387 482.864 51.3224C482.083 52.5062 481.669 53.8911 481.621 55.4773V67.125C481.621 68.8769 481.988 70.4394 482.722 71.8125C483.456 73.1856 484.51 74.2628 485.883 75.044C487.256 75.8253 488.913 76.2159 490.854 76.2159C492.204 76.2159 493.435 76.0265 494.548 75.6477C495.684 75.2689 496.655 74.7244 497.46 74.0142C498.264 73.2803 498.856 72.4044 499.235 71.3864H517.133C516.517 75.1742 515.061 78.465 512.765 81.2585C510.469 84.0284 507.426 86.1828 503.638 87.7216C499.874 89.2367 495.471 89.9943 490.428 89.9943ZM542.781 32.1818V16.2727H605.991V32.1818H584.116V89H564.656V32.1818H542.781ZM632.074 89.9943C626.156 89.9943 621.089 88.8224 616.875 86.4787C612.661 84.1113 609.43 80.8205 607.181 76.6065C604.932 72.3688 603.807 67.4564 603.807 61.8693C603.807 56.2822 604.932 51.3816 607.181 47.1676C609.43 42.9299 612.661 39.6392 616.875 37.2955C621.089 34.928 626.156 33.7443 632.074 33.7443C637.993 33.7443 643.059 34.928 647.273 37.2955C651.487 39.6392 654.719 42.9299 656.968 47.1676C659.217 51.3816 660.341 56.2822 660.341 61.8693C660.341 67.4564 659.217 72.3688 656.968 76.6065C654.719 80.8205 651.487 84.1113 647.273 86.4787C643.059 88.8224 637.993 89.9943 632.074 89.9943ZM632.216 75.5057C633.873 75.5057 635.306 74.9493 636.513 73.8366C637.721 72.724 638.656 71.1378 639.319 69.0781C639.981 67.0185 640.313 64.5682 640.313 61.7273C640.313 58.8627 639.981 56.4124 639.319 54.3764C638.656 52.3168 637.721 50.7306 636.513 49.6179C635.306 48.5052 633.873 47.9489 632.216 47.9489C630.464 47.9489 628.961 48.5052 627.706 49.6179C626.452 50.7306 625.493 52.3168 624.83 54.3764C624.167 56.4124 623.836 58.8627 623.836 61.7273C623.836 64.5682 624.167 67.0185 624.83 69.0781C625.493 71.1378 626.452 72.724 627.706 73.8366C628.961 74.9493 630.464 75.5057 632.216 75.5057ZM20.1602 209V136.273H71.2965V152.182H39.9045V164.682H68.1715V180.591H39.9045V209H20.1602ZM100.975 209.994C95.1513 209.994 90.1323 208.882 85.9183 206.656C81.728 204.407 78.4964 201.187 76.2237 196.997C73.9747 192.783 72.8501 187.741 72.8501 181.869C72.8501 176.235 73.9865 171.311 76.2592 167.097C78.532 162.883 81.7398 159.604 85.8828 157.26C90.0258 154.916 94.9145 153.744 100.549 153.744C104.668 153.744 108.397 154.384 111.735 155.662C115.073 156.94 117.926 158.799 120.293 161.237C122.661 163.652 124.484 166.588 125.762 170.044C127.04 173.5 127.68 177.395 127.68 181.727V186.273H78.9581V175.477H109.64C109.616 173.915 109.214 172.542 108.433 171.358C107.675 170.151 106.645 169.215 105.343 168.553C104.065 167.866 102.609 167.523 100.975 167.523C99.389 167.523 97.933 167.866 96.6072 168.553C95.2815 169.215 94.2161 170.139 93.4112 171.322C92.63 172.506 92.2157 173.891 92.1683 175.477V187.125C92.1683 188.877 92.5353 190.439 93.2692 191.812C94.0031 193.186 95.0566 194.263 96.4297 195.044C97.8028 195.825 99.46 196.216 101.401 196.216C102.751 196.216 103.982 196.027 105.094 195.648C106.231 195.269 107.201 194.724 108.006 194.014C108.811 193.28 109.403 192.404 109.782 191.386H127.68C127.064 195.174 125.608 198.465 123.312 201.259C121.015 204.028 117.973 206.183 114.185 207.722C110.421 209.237 106.018 209.994 100.975 209.994ZM161.815 209.994C155.991 209.994 150.972 208.882 146.758 206.656C142.568 204.407 139.336 201.187 137.064 196.997C134.815 192.783 133.69 187.741 133.69 181.869C133.69 176.235 134.826 171.311 137.099 167.097C139.372 162.883 142.58 159.604 146.723 157.26C150.866 154.916 155.754 153.744 161.389 153.744C165.508 153.744 169.237 154.384 172.575 155.662C175.913 156.94 178.766 158.799 181.133 161.237C183.501 163.652 185.324 166.588 186.602 170.044C187.88 173.5 188.52 177.395 188.52 181.727V186.273H139.798V175.477H170.48C170.456 173.915 170.054 172.542 169.272 171.358C168.515 170.151 167.485 169.215 166.183 168.553C164.904 167.866 163.449 167.523 161.815 167.523C160.229 167.523 158.773 167.866 157.447 168.553C156.121 169.215 155.056 170.139 154.251 171.322C153.47 172.506 153.056 173.891 153.008 175.477V187.125C153.008 188.877 153.375 190.439 154.109 191.812C154.843 193.186 155.896 194.263 157.27 195.044C158.643 195.825 160.3 196.216 162.241 196.216C163.591 196.216 164.822 196.027 165.934 195.648C167.071 195.269 168.041 194.724 168.846 194.014C169.651 193.28 170.243 192.404 170.622 191.386H188.52C187.904 195.174 186.448 198.465 184.152 201.259C181.855 204.028 178.813 206.183 175.025 207.722C171.261 209.237 166.858 209.994 161.815 209.994ZM216.263 209.71C212.38 209.71 208.805 208.692 205.538 206.656C202.295 204.62 199.691 201.531 197.726 197.388C195.785 193.245 194.814 188.025 194.814 181.727C194.814 175.146 195.832 169.795 197.868 165.676C199.928 161.557 202.579 158.538 205.822 156.621C209.089 154.703 212.522 153.744 216.121 153.744C218.82 153.744 221.187 154.218 223.223 155.165C225.259 156.088 226.964 157.331 228.337 158.893C229.71 160.432 230.751 162.125 231.462 163.972H231.746V136.273H251.348V209H231.888V200.051H231.462C230.704 201.898 229.615 203.555 228.195 205.023C226.798 206.467 225.093 207.615 223.081 208.467C221.092 209.296 218.82 209.71 216.263 209.71ZM223.507 194.653C225.306 194.653 226.845 194.133 228.124 193.091C229.426 192.026 230.42 190.534 231.107 188.616C231.817 186.675 232.172 184.379 232.172 181.727C232.172 179.028 231.817 176.72 231.107 174.803C230.42 172.861 229.426 171.382 228.124 170.364C226.845 169.322 225.306 168.801 223.507 168.801C221.708 168.801 220.169 169.322 218.891 170.364C217.636 171.382 216.665 172.861 215.979 174.803C215.316 176.72 214.984 179.028 214.984 181.727C214.984 184.426 215.316 186.746 215.979 188.688C216.665 190.605 217.636 192.085 218.891 193.126C220.169 194.144 221.708 194.653 223.507 194.653ZM260.688 209V136.273H280.29V163.972H280.574C281.284 162.125 282.326 160.432 283.699 158.893C285.072 157.331 286.777 156.088 288.812 155.165C290.848 154.218 293.216 153.744 295.915 153.744C299.513 153.744 302.934 154.703 306.178 156.621C309.445 158.538 312.096 161.557 314.132 165.676C316.192 169.795 317.222 175.146 317.222 181.727C317.222 188.025 316.239 193.245 314.274 197.388C312.333 201.531 309.729 204.62 306.462 206.656C303.218 208.692 299.655 209.71 295.773 209.71C293.216 209.71 290.931 209.296 288.919 208.467C286.93 207.615 285.226 206.467 283.805 205.023C282.409 203.555 281.331 201.898 280.574 200.051H280.148V209H260.688ZM279.864 181.727C279.864 184.379 280.207 186.675 280.893 188.616C281.604 190.534 282.598 192.026 283.876 193.091C285.179 194.133 286.729 194.653 288.528 194.653C290.328 194.653 291.855 194.144 293.109 193.126C294.388 192.085 295.358 190.605 296.021 188.688C296.708 186.746 297.051 184.426 297.051 181.727C297.051 179.028 296.708 176.72 296.021 174.803C295.358 172.861 294.388 171.382 293.109 170.364C291.855 169.322 290.328 168.801 288.528 168.801C286.729 168.801 285.179 169.322 283.876 170.364C282.598 171.382 281.604 172.861 280.893 174.803C280.207 176.72 279.864 179.028 279.864 181.727ZM351.703 209.994C345.785 209.994 340.718 208.822 336.504 206.479C332.29 204.111 329.059 200.821 326.81 196.607C324.561 192.369 323.436 187.456 323.436 181.869C323.436 176.282 324.561 171.382 326.81 167.168C329.059 162.93 332.29 159.639 336.504 157.295C340.718 154.928 345.785 153.744 351.703 153.744C357.622 153.744 362.688 154.928 366.902 157.295C371.116 159.639 374.348 162.93 376.597 167.168C378.846 171.382 379.97 176.282 379.97 181.869C379.97 187.456 378.846 192.369 376.597 196.607C374.348 200.821 371.116 204.111 366.902 206.479C362.688 208.822 357.622 209.994 351.703 209.994ZM351.845 195.506C353.502 195.506 354.935 194.949 356.142 193.837C357.349 192.724 358.285 191.138 358.947 189.078C359.61 187.018 359.942 184.568 359.942 181.727C359.942 178.863 359.61 176.412 358.947 174.376C358.285 172.317 357.349 170.731 356.142 169.618C354.935 168.505 353.502 167.949 351.845 167.949C350.093 167.949 348.59 168.505 347.335 169.618C346.08 170.731 345.122 172.317 344.459 174.376C343.796 176.412 343.464 178.863 343.464 181.727C343.464 184.568 343.796 187.018 344.459 189.078C345.122 191.138 346.08 192.724 347.335 193.837C348.59 194.949 350.093 195.506 351.845 195.506ZM402.973 154.455L410.927 171.358L419.308 154.455H438.768L424.137 181.727L439.478 209H420.16L410.927 191.67L401.978 209H382.376L397.859 181.727L383.37 154.455H402.973ZM533.273 163.545H513.244C513.102 161.888 512.723 160.385 512.108 159.036C511.516 157.686 510.688 156.526 509.622 155.555C508.58 154.561 507.314 153.804 505.822 153.283C504.331 152.738 502.638 152.466 500.744 152.466C497.43 152.466 494.625 153.271 492.328 154.881C490.055 156.491 488.327 158.799 487.143 161.805C485.983 164.812 485.403 168.422 485.403 172.636C485.403 177.087 485.995 180.816 487.179 183.822C488.386 186.805 490.126 189.054 492.399 190.57C494.672 192.061 497.406 192.807 500.602 192.807C502.425 192.807 504.059 192.582 505.503 192.132C506.947 191.659 508.202 190.984 509.267 190.108C510.332 189.232 511.196 188.179 511.859 186.947C512.546 185.693 513.008 184.284 513.244 182.722L533.273 182.864C533.036 185.941 532.172 189.078 530.68 192.274C529.189 195.446 527.07 198.382 524.324 201.081C521.601 203.756 518.228 205.911 514.203 207.544C510.179 209.178 505.503 209.994 500.176 209.994C493.5 209.994 487.51 208.562 482.207 205.697C476.928 202.833 472.75 198.619 469.672 193.055C466.618 187.492 465.091 180.686 465.091 172.636C465.091 164.54 466.653 157.722 469.778 152.182C472.903 146.618 477.117 142.416 482.42 139.575C487.723 136.711 493.642 135.278 500.176 135.278C504.769 135.278 508.995 135.906 512.854 137.161C516.713 138.415 520.098 140.25 523.01 142.665C525.922 145.056 528.266 148.003 530.041 151.507C531.817 155.011 532.894 159.024 533.273 163.545ZM562.117 136.273V209H542.515V136.273H562.117ZM607.474 185.136V154.455H627.076V209H608.468V198.631H607.9C606.716 202.111 604.645 204.833 601.685 206.798C598.726 208.74 595.21 209.71 591.138 209.71C587.327 209.71 583.989 208.834 581.124 207.082C578.283 205.33 576.07 202.916 574.484 199.838C572.921 196.76 572.128 193.233 572.104 189.256V154.455H591.707V185.136C591.73 187.835 592.417 189.954 593.766 191.493C595.139 193.032 597.057 193.801 599.519 193.801C601.153 193.801 602.561 193.458 603.745 192.771C604.952 192.061 605.876 191.067 606.515 189.788C607.178 188.486 607.497 186.936 607.474 185.136ZM636.762 209V136.273H656.364V163.972H656.648C657.358 162.125 658.4 160.432 659.773 158.893C661.146 157.331 662.851 156.088 664.887 155.165C666.923 154.218 669.29 153.744 671.989 153.744C675.587 153.744 679.008 154.703 682.252 156.621C685.519 158.538 688.17 161.557 690.206 165.676C692.266 169.795 693.296 175.146 693.296 181.727C693.296 188.025 692.313 193.245 690.348 197.388C688.407 201.531 685.803 204.62 682.536 206.656C679.292 208.692 675.73 209.71 671.847 209.71C669.29 209.71 667.006 209.296 664.993 208.467C663.005 207.615 661.3 206.467 659.88 205.023C658.483 203.555 657.406 201.898 656.648 200.051H656.222V209H636.762ZM655.938 181.727C655.938 184.379 656.281 186.675 656.968 188.616C657.678 190.534 658.672 192.026 659.951 193.091C661.253 194.133 662.803 194.653 664.603 194.653C666.402 194.653 667.929 194.144 669.184 193.126C670.462 192.085 671.433 190.605 672.096 188.688C672.782 186.746 673.125 184.426 673.125 181.727C673.125 179.028 672.782 176.72 672.096 174.803C671.433 172.861 670.462 171.382 669.184 170.364C667.929 169.322 666.402 168.801 664.603 168.801C662.803 168.801 661.253 169.322 659.951 170.364C658.672 171.382 657.678 172.861 656.968 174.803C656.281 176.72 655.938 179.028 655.938 181.727Z"
            fill="white" />
    </g>
    <defs>
        <filter id="filter0_d_219_1073" x="0.160156" y="0.272724" width="713.136" height="233.722"
            filterUnits="userSpaceOnUse" color-interpolation-filters="sRGB">
            <feFlood flood-opacity="0" result="BackgroundImageFix" />
            <feColorMatrix in="SourceAlpha" type="matrix" values="0 0 0 0 0 0 0 0 0 0 0 0 0 0 0 0 0 0 127 0"
                result="hardAlpha" />
            <feOffset dy="4" />
            <feGaussianBlur stdDeviation="10" />
            <feComposite in2="hardAlpha" operator="out" />
            <feColorMatrix type="matrix" values="0 0 0 0 0 0 0 0 0 0 0 0 0 0 0 0 0 0 1 0" />
            <feBlend mode="normal" in2="BackgroundImageFix" result="effect1_dropShadow_219_1073" />
            <feBlend mode="normal" in="SourceGraphic" in2="effect1_dropShadow_219_1073" result="shape" />
        </filter>
    </defs>
</svg>